<mxfile host="app.diagrams.net" modified="2021-03-12T21:19:39.963Z" agent="5.0 (X11)" etag="8aCefEvUQnnMR3VGOOjD" version="14.4.8" type="github">
  <diagram id="R00o_uZto41ws9qk-KIg" name="Page-1">
    <mxGraphModel dx="1033" dy="946" grid="1" gridSize="10" guides="1" tooltips="1" connect="1" arrows="1" fold="1" page="1" pageScale="1" pageWidth="850" pageHeight="1100" math="0" shadow="0">
      <root>
        <object label="" id="0">
          <mxCell />
        </object>
        <mxCell id="1" parent="0" />
        <mxCell id="_-29_EvRfan_lz7JUybT-13" style="edgeStyle=orthogonalEdgeStyle;rounded=0;orthogonalLoop=1;jettySize=auto;html=1;fontFamily=Helvetica;" parent="1" source="_-29_EvRfan_lz7JUybT-4" target="_-29_EvRfan_lz7JUybT-12" edge="1">
          <mxGeometry relative="1" as="geometry" />
        </mxCell>
        <mxCell id="_-29_EvRfan_lz7JUybT-30" style="edgeStyle=orthogonalEdgeStyle;rounded=0;orthogonalLoop=1;jettySize=auto;html=1;entryX=0.5;entryY=1;entryDx=0;entryDy=0;fontFamily=Helvetica;" parent="1" source="_-29_EvRfan_lz7JUybT-4" target="_-29_EvRfan_lz7JUybT-27" edge="1">
          <mxGeometry relative="1" as="geometry" />
        </mxCell>
        <mxCell id="_-29_EvRfan_lz7JUybT-33" style="edgeStyle=orthogonalEdgeStyle;rounded=0;orthogonalLoop=1;jettySize=auto;html=1;exitX=0.5;exitY=0.5;exitDx=0;exitDy=0;exitPerimeter=0;entryX=0;entryY=0.5;entryDx=0;entryDy=0;fontFamily=Helvetica;" parent="1" source="_-29_EvRfan_lz7JUybT-4" target="_-29_EvRfan_lz7JUybT-32" edge="1">
          <mxGeometry relative="1" as="geometry">
            <Array as="points">
              <mxPoint x="185" y="350" />
              <mxPoint x="283" y="350" />
              <mxPoint x="283" y="250" />
            </Array>
          </mxGeometry>
        </mxCell>
        <mxCell id="_-29_EvRfan_lz7JUybT-39" style="edgeStyle=orthogonalEdgeStyle;rounded=0;orthogonalLoop=1;jettySize=auto;html=1;exitX=0.5;exitY=0.5;exitDx=0;exitDy=0;exitPerimeter=0;entryX=0;entryY=0.5;entryDx=0;entryDy=0;fontFamily=Helvetica;" parent="1" source="_-29_EvRfan_lz7JUybT-4" target="_-29_EvRfan_lz7JUybT-38" edge="1">
          <mxGeometry relative="1" as="geometry">
            <Array as="points">
              <mxPoint x="185" y="440" />
              <mxPoint x="280" y="440" />
              <mxPoint x="280" y="360" />
            </Array>
          </mxGeometry>
        </mxCell>
        <mxCell id="_-29_EvRfan_lz7JUybT-41" style="edgeStyle=orthogonalEdgeStyle;rounded=0;orthogonalLoop=1;jettySize=auto;html=1;exitX=0.5;exitY=0.5;exitDx=0;exitDy=0;exitPerimeter=0;entryX=0;entryY=0.5;entryDx=0;entryDy=0;fontFamily=Helvetica;" parent="1" source="_-29_EvRfan_lz7JUybT-4" target="_-29_EvRfan_lz7JUybT-40" edge="1">
          <mxGeometry relative="1" as="geometry">
            <Array as="points">
              <mxPoint x="550" y="480" />
              <mxPoint x="550" y="420" />
            </Array>
          </mxGeometry>
        </mxCell>
        <mxCell id="pJprtQ17nexScmOIhKD2-4" style="edgeStyle=orthogonalEdgeStyle;rounded=0;orthogonalLoop=1;jettySize=auto;html=1;exitX=0.5;exitY=0.5;exitDx=0;exitDy=0;exitPerimeter=0;entryX=0;entryY=0.5;entryDx=0;entryDy=0;" edge="1" parent="1" source="_-29_EvRfan_lz7JUybT-4" target="_-29_EvRfan_lz7JUybT-59">
          <mxGeometry relative="1" as="geometry">
            <Array as="points">
              <mxPoint x="230" y="500" />
              <mxPoint x="230" y="620" />
            </Array>
          </mxGeometry>
        </mxCell>
        <mxCell id="pJprtQ17nexScmOIhKD2-7" style="edgeStyle=orthogonalEdgeStyle;rounded=0;orthogonalLoop=1;jettySize=auto;html=1;exitX=0.5;exitY=0.5;exitDx=0;exitDy=0;exitPerimeter=0;strokeColor=#330000;" edge="1" parent="1" source="_-29_EvRfan_lz7JUybT-4" target="_-29_EvRfan_lz7JUybT-51">
          <mxGeometry relative="1" as="geometry" />
        </mxCell>
        <object label="&lt;div&gt;User&lt;/div&gt;" id="_-29_EvRfan_lz7JUybT-4">
          <mxCell style="shape=umlActor;verticalLabelPosition=middle;verticalAlign=middle;html=1;outlineConnect=0;fontFamily=Helvetica;labelPosition=left;align=right;" parent="1" vertex="1">
            <mxGeometry x="170" y="470" width="30" height="60" as="geometry" />
          </mxCell>
        </object>
        <mxCell id="_-29_EvRfan_lz7JUybT-14" style="edgeStyle=orthogonalEdgeStyle;rounded=0;orthogonalLoop=1;jettySize=auto;html=1;entryX=0;entryY=0.5;entryDx=0;entryDy=0;fontFamily=Helvetica;strokeColor=#FF3333;" parent="1" source="_-29_EvRfan_lz7JUybT-6" target="_-29_EvRfan_lz7JUybT-12" edge="1">
          <mxGeometry relative="1" as="geometry" />
        </mxCell>
        <object label="&lt;div align=&quot;center&quot;&gt;&lt;br&gt;&lt;/div&gt;&lt;div align=&quot;center&quot;&gt;&lt;br&gt;&lt;/div&gt;&lt;div align=&quot;center&quot;&gt;&amp;lt;&amp;lt;event&amp;gt;&amp;gt;&lt;/div&gt;&lt;div align=&quot;center&quot;&gt;Start of period&lt;/div&gt;" id="_-29_EvRfan_lz7JUybT-6">
          <mxCell style="shape=umlActor;verticalLabelPosition=top;verticalAlign=bottom;html=1;outlineConnect=0;fontFamily=Helvetica;labelPosition=center;align=center;" parent="1" vertex="1">
            <mxGeometry x="100" y="610" width="30" height="60" as="geometry" />
          </mxCell>
        </object>
        <mxCell id="_-29_EvRfan_lz7JUybT-43" style="edgeStyle=orthogonalEdgeStyle;rounded=0;orthogonalLoop=1;jettySize=auto;html=1;exitX=0;exitY=0.3333333333333333;exitDx=0;exitDy=0;exitPerimeter=0;entryX=1;entryY=0.5;entryDx=0;entryDy=0;fontFamily=Helvetica;strokeColor=#FF0000;" parent="1" source="_-29_EvRfan_lz7JUybT-7" target="_-29_EvRfan_lz7JUybT-40" edge="1">
          <mxGeometry relative="1" as="geometry" />
        </mxCell>
        <object label="&lt;div&gt;&amp;lt;&amp;lt;event&amp;gt;&amp;gt;&lt;/div&gt;&lt;div&gt;End of period&lt;/div&gt;" id="_-29_EvRfan_lz7JUybT-7">
          <mxCell style="shape=umlActor;verticalLabelPosition=top;verticalAlign=bottom;html=1;outlineConnect=0;fontFamily=Helvetica;labelPosition=center;align=center;" parent="1" vertex="1">
            <mxGeometry x="750" y="450" width="30" height="60" as="geometry" />
          </mxCell>
        </object>
        <mxCell id="_-29_EvRfan_lz7JUybT-25" value="&amp;lt;&amp;lt;include&amp;gt;&amp;gt;" style="edgeStyle=orthogonalEdgeStyle;rounded=0;orthogonalLoop=1;jettySize=auto;html=1;exitX=0.5;exitY=1;exitDx=0;exitDy=0;dashed=1;fontFamily=Helvetica;" parent="1" source="_-29_EvRfan_lz7JUybT-12" target="_-29_EvRfan_lz7JUybT-22" edge="1">
          <mxGeometry relative="1" as="geometry" />
        </mxCell>
        <mxCell id="_-29_EvRfan_lz7JUybT-12" value="&lt;div&gt;set the initial value&lt;/div&gt;" style="ellipse;whiteSpace=wrap;html=1;fontFamily=Helvetica;align=center;" parent="1" vertex="1">
          <mxGeometry x="125" y="750" width="120" height="80" as="geometry" />
        </mxCell>
        <mxCell id="_-29_EvRfan_lz7JUybT-18" value="&amp;lt;&amp;lt;extends&amp;gt;&amp;gt;" style="edgeStyle=orthogonalEdgeStyle;rounded=0;orthogonalLoop=1;jettySize=auto;html=1;exitX=0.5;exitY=0;exitDx=0;exitDy=0;entryX=0;entryY=1;entryDx=0;entryDy=0;fontFamily=Helvetica;dashed=1;" parent="1" source="_-29_EvRfan_lz7JUybT-15" target="_-29_EvRfan_lz7JUybT-12" edge="1">
          <mxGeometry relative="1" as="geometry">
            <Array as="points">
              <mxPoint x="60" y="855" />
              <mxPoint x="143" y="855" />
            </Array>
          </mxGeometry>
        </mxCell>
        <mxCell id="_-29_EvRfan_lz7JUybT-15" value="manually" style="ellipse;whiteSpace=wrap;html=1;fontFamily=Helvetica;align=center;" parent="1" vertex="1">
          <mxGeometry y="860" width="120" height="80" as="geometry" />
        </mxCell>
        <mxCell id="_-29_EvRfan_lz7JUybT-20" value="&amp;lt;&amp;lt;extends&amp;gt;&amp;lt;" style="edgeStyle=orthogonalEdgeStyle;rounded=0;orthogonalLoop=1;jettySize=auto;html=1;exitX=0.5;exitY=0;exitDx=0;exitDy=0;entryX=0.662;entryY=1.01;entryDx=0;entryDy=0;entryPerimeter=0;dashed=1;fontFamily=Helvetica;" parent="1" source="_-29_EvRfan_lz7JUybT-16" target="_-29_EvRfan_lz7JUybT-12" edge="1">
          <mxGeometry relative="1" as="geometry" />
        </mxCell>
        <mxCell id="_-29_EvRfan_lz7JUybT-16" value="compiling the form" style="ellipse;whiteSpace=wrap;html=1;fontFamily=Helvetica;align=center;" parent="1" vertex="1">
          <mxGeometry x="210" y="930" width="120" height="80" as="geometry" />
        </mxCell>
        <mxCell id="_-29_EvRfan_lz7JUybT-21" value="&amp;lt;&amp;lt;extends&amp;gt;&amp;gt;" style="edgeStyle=orthogonalEdgeStyle;rounded=0;orthogonalLoop=1;jettySize=auto;html=1;exitX=0.5;exitY=0;exitDx=0;exitDy=0;entryX=1;entryY=0.5;entryDx=0;entryDy=0;dashed=1;fontFamily=Helvetica;" parent="1" source="_-29_EvRfan_lz7JUybT-17" target="_-29_EvRfan_lz7JUybT-12" edge="1">
          <mxGeometry relative="1" as="geometry">
            <Array as="points">
              <mxPoint x="400" y="870" />
              <mxPoint x="245" y="870" />
            </Array>
          </mxGeometry>
        </mxCell>
        <mxCell id="_-29_EvRfan_lz7JUybT-17" value="the same as last period" style="ellipse;whiteSpace=wrap;html=1;fontFamily=Helvetica;align=center;" parent="1" vertex="1">
          <mxGeometry x="340" y="970" width="120" height="80" as="geometry" />
        </mxCell>
        <mxCell id="_-29_EvRfan_lz7JUybT-22" value="store the value for the next period" style="ellipse;whiteSpace=wrap;html=1;fontFamily=Helvetica;align=center;" parent="1" vertex="1">
          <mxGeometry x="125" y="1000" width="120" height="80" as="geometry" />
        </mxCell>
        <mxCell id="_-29_EvRfan_lz7JUybT-29" value="&amp;lt;&amp;lt;include&amp;gt;&amp;gt;" style="edgeStyle=orthogonalEdgeStyle;rounded=0;orthogonalLoop=1;jettySize=auto;html=1;exitX=0.5;exitY=0;exitDx=0;exitDy=0;entryX=0.5;entryY=1;entryDx=0;entryDy=0;dashed=1;fontFamily=Helvetica;" parent="1" source="_-29_EvRfan_lz7JUybT-27" target="_-29_EvRfan_lz7JUybT-28" edge="1">
          <mxGeometry relative="1" as="geometry" />
        </mxCell>
        <mxCell id="_-29_EvRfan_lz7JUybT-27" value="registry one transaction" style="ellipse;whiteSpace=wrap;html=1;fontFamily=Helvetica;align=center;" parent="1" vertex="1">
          <mxGeometry x="110" y="250" width="120" height="80" as="geometry" />
        </mxCell>
        <mxCell id="_-29_EvRfan_lz7JUybT-28" value="spendable money go down the the same value" style="ellipse;whiteSpace=wrap;html=1;fontFamily=Helvetica;align=center;" parent="1" vertex="1">
          <mxGeometry x="110" y="80" width="120" height="80" as="geometry" />
        </mxCell>
        <mxCell id="_-29_EvRfan_lz7JUybT-32" value="see the spendable money left at anytime" style="ellipse;whiteSpace=wrap;html=1;fontFamily=Helvetica;align=center;" parent="1" vertex="1">
          <mxGeometry x="365" y="210" width="120" height="80" as="geometry" />
        </mxCell>
        <mxCell id="_-29_EvRfan_lz7JUybT-35" value="&amp;lt;&amp;lt;extends&amp;gt;&amp;gt;" style="edgeStyle=orthogonalEdgeStyle;rounded=0;orthogonalLoop=1;jettySize=auto;html=1;exitX=0;exitY=0.5;exitDx=0;exitDy=0;entryX=1;entryY=0.5;entryDx=0;entryDy=0;fontFamily=Helvetica;dashed=1;" parent="1" source="_-29_EvRfan_lz7JUybT-34" target="_-29_EvRfan_lz7JUybT-28" edge="1">
          <mxGeometry relative="1" as="geometry" />
        </mxCell>
        <mxCell id="_-29_EvRfan_lz7JUybT-37" value="&amp;lt;&amp;lt;include&amp;gt;&amp;gt;" style="edgeStyle=orthogonalEdgeStyle;rounded=0;orthogonalLoop=1;jettySize=auto;html=1;exitX=1;exitY=0.5;exitDx=0;exitDy=0;entryX=0;entryY=0.5;entryDx=0;entryDy=0;dashed=1;fontFamily=Helvetica;" parent="1" source="_-29_EvRfan_lz7JUybT-34" target="_-29_EvRfan_lz7JUybT-36" edge="1">
          <mxGeometry relative="1" as="geometry" />
        </mxCell>
        <mxCell id="_-29_EvRfan_lz7JUybT-34" value="spendable money can be negative" style="ellipse;whiteSpace=wrap;html=1;fontFamily=Helvetica;align=center;" parent="1" vertex="1">
          <mxGeometry x="350" y="80" width="120" height="80" as="geometry" />
        </mxCell>
        <mxCell id="_-29_EvRfan_lz7JUybT-36" value="viewable hint when the money is negative" style="ellipse;whiteSpace=wrap;html=1;fontFamily=Helvetica;align=center;" parent="1" vertex="1">
          <mxGeometry x="600" y="80" width="120" height="80" as="geometry" />
        </mxCell>
        <mxCell id="_-29_EvRfan_lz7JUybT-38" value="see the past month score at anytime" style="ellipse;whiteSpace=wrap;html=1;fontFamily=Helvetica;align=center;" parent="1" vertex="1">
          <mxGeometry x="360" y="320" width="120" height="80" as="geometry" />
        </mxCell>
        <mxCell id="_-29_EvRfan_lz7JUybT-40" value="&lt;div&gt;Track the user monthly score&lt;/div&gt;" style="ellipse;whiteSpace=wrap;html=1;fontFamily=Helvetica;align=center;" parent="1" vertex="1">
          <mxGeometry x="590" y="380" width="120" height="80" as="geometry" />
        </mxCell>
        <mxCell id="_-29_EvRfan_lz7JUybT-49" value="&amp;lt;&amp;lt;extends&amp;gt;&amp;gt;" style="edgeStyle=orthogonalEdgeStyle;rounded=0;orthogonalLoop=1;jettySize=auto;html=1;exitX=0.5;exitY=1;exitDx=0;exitDy=0;fontFamily=Helvetica;dashed=1;" parent="1" source="_-29_EvRfan_lz7JUybT-44" target="_-29_EvRfan_lz7JUybT-40" edge="1">
          <mxGeometry relative="1" as="geometry" />
        </mxCell>
        <mxCell id="_-29_EvRfan_lz7JUybT-44" value="Track only successful or unsuccessful not overspend" style="ellipse;whiteSpace=wrap;html=1;fontFamily=Helvetica;align=center;" parent="1" vertex="1">
          <mxGeometry x="560" y="230" width="120" height="80" as="geometry" />
        </mxCell>
        <mxCell id="_-29_EvRfan_lz7JUybT-48" style="edgeStyle=orthogonalEdgeStyle;rounded=0;orthogonalLoop=1;jettySize=auto;html=1;exitX=0.5;exitY=1;exitDx=0;exitDy=0;entryX=1;entryY=0;entryDx=0;entryDy=0;fontFamily=Helvetica;dashed=1;" parent="1" source="_-29_EvRfan_lz7JUybT-45" target="_-29_EvRfan_lz7JUybT-40" edge="1">
          <mxGeometry relative="1" as="geometry" />
        </mxCell>
        <mxCell id="_-29_EvRfan_lz7JUybT-50" value="&amp;lt;&amp;lt;extends&amp;gt;&amp;gt;" style="edgeLabel;html=1;align=center;verticalAlign=middle;resizable=0;points=[];fontFamily=Helvetica;" parent="_-29_EvRfan_lz7JUybT-48" vertex="1" connectable="0">
          <mxGeometry x="-0.5723" y="1" relative="1" as="geometry">
            <mxPoint as="offset" />
          </mxGeometry>
        </mxCell>
        <mxCell id="_-29_EvRfan_lz7JUybT-45" value="Track the exact value" style="ellipse;whiteSpace=wrap;html=1;fontFamily=Helvetica;align=center;" parent="1" vertex="1">
          <mxGeometry x="705" y="230" width="120" height="80" as="geometry" />
        </mxCell>
        <mxCell id="_-29_EvRfan_lz7JUybT-51" value="open the options" style="ellipse;whiteSpace=wrap;html=1;fontFamily=Helvetica;align=center;" parent="1" vertex="1">
          <mxGeometry x="630" y="840" width="120" height="80" as="geometry" />
        </mxCell>
        <mxCell id="pJprtQ17nexScmOIhKD2-9" value="&amp;lt;&amp;lt;extends&amp;gt;&amp;gt;" style="edgeStyle=orthogonalEdgeStyle;rounded=0;orthogonalLoop=1;jettySize=auto;html=1;exitX=0.5;exitY=1;exitDx=0;exitDy=0;entryX=1;entryY=0.5;entryDx=0;entryDy=0;dashed=1;strokeColor=#330000;" edge="1" parent="1" source="_-29_EvRfan_lz7JUybT-52" target="_-29_EvRfan_lz7JUybT-51">
          <mxGeometry relative="1" as="geometry" />
        </mxCell>
        <mxCell id="pJprtQ17nexScmOIhKD2-12" value="&amp;lt;&amp;lt;include&amp;gt;&amp;gt;" style="edgeStyle=orthogonalEdgeStyle;rounded=0;orthogonalLoop=1;jettySize=auto;html=1;exitX=0.5;exitY=0;exitDx=0;exitDy=0;entryX=1;entryY=1;entryDx=0;entryDy=0;dashed=1;strokeColor=#330000;" edge="1" parent="1" source="_-29_EvRfan_lz7JUybT-52" target="_-29_EvRfan_lz7JUybT-59">
          <mxGeometry relative="1" as="geometry" />
        </mxCell>
        <mxCell id="_-29_EvRfan_lz7JUybT-52" value="clear data" style="ellipse;whiteSpace=wrap;html=1;fontFamily=Helvetica;align=center;" parent="1" vertex="1">
          <mxGeometry x="710" y="710" width="120" height="80" as="geometry" />
        </mxCell>
        <mxCell id="pJprtQ17nexScmOIhKD2-8" value="&amp;lt;&amp;lt;extends&amp;gt;&amp;gt;" style="edgeStyle=orthogonalEdgeStyle;rounded=0;orthogonalLoop=1;jettySize=auto;html=1;exitX=0.5;exitY=1;exitDx=0;exitDy=0;entryX=0;entryY=0.5;entryDx=0;entryDy=0;strokeColor=#330000;dashed=1;" edge="1" parent="1" source="_-29_EvRfan_lz7JUybT-53" target="_-29_EvRfan_lz7JUybT-51">
          <mxGeometry relative="1" as="geometry" />
        </mxCell>
        <mxCell id="_-29_EvRfan_lz7JUybT-53" value="select track method" style="ellipse;whiteSpace=wrap;html=1;fontFamily=Helvetica;align=center;" parent="1" vertex="1">
          <mxGeometry x="530" y="710" width="120" height="80" as="geometry" />
        </mxCell>
        <mxCell id="pJprtQ17nexScmOIhKD2-6" style="edgeStyle=orthogonalEdgeStyle;rounded=0;orthogonalLoop=1;jettySize=auto;html=1;exitX=0;exitY=0.3333333333333333;exitDx=0;exitDy=0;exitPerimeter=0;entryX=1;entryY=0.5;entryDx=0;entryDy=0;strokeColor=#CC0000;" edge="1" parent="1" source="_-29_EvRfan_lz7JUybT-58" target="_-29_EvRfan_lz7JUybT-59">
          <mxGeometry relative="1" as="geometry" />
        </mxCell>
        <mxCell id="_-29_EvRfan_lz7JUybT-58" value="&lt;div&gt;&amp;lt;&amp;lt;event&amp;gt;&amp;gt;&lt;/div&gt;&lt;div&gt;First Entry&lt;br&gt;&lt;/div&gt;" style="shape=umlActor;verticalLabelPosition=top;verticalAlign=bottom;html=1;outlineConnect=0;fontFamily=Helvetica;align=center;labelPosition=center;" parent="1" vertex="1">
          <mxGeometry x="790" y="570" width="30" height="60" as="geometry" />
        </mxCell>
        <mxCell id="pJprtQ17nexScmOIhKD2-13" value="&amp;lt;&amp;lt;extends&amp;gt;&amp;gt;" style="edgeStyle=orthogonalEdgeStyle;rounded=0;orthogonalLoop=1;jettySize=auto;html=1;exitX=0.5;exitY=1;exitDx=0;exitDy=0;entryX=0;entryY=0;entryDx=0;entryDy=0;dashed=1;strokeColor=#330000;" edge="1" parent="1" source="_-29_EvRfan_lz7JUybT-59" target="pJprtQ17nexScmOIhKD2-2">
          <mxGeometry relative="1" as="geometry" />
        </mxCell>
        <mxCell id="pJprtQ17nexScmOIhKD2-14" value="&amp;lt;&amp;lt;extends&amp;gt;&amp;gt;" style="edgeStyle=orthogonalEdgeStyle;rounded=0;orthogonalLoop=1;jettySize=auto;html=1;exitX=0.5;exitY=1;exitDx=0;exitDy=0;entryX=1;entryY=0;entryDx=0;entryDy=0;dashed=1;strokeColor=#330000;" edge="1" parent="1" source="_-29_EvRfan_lz7JUybT-59" target="_-29_EvRfan_lz7JUybT-12">
          <mxGeometry relative="1" as="geometry" />
        </mxCell>
        <mxCell id="pJprtQ17nexScmOIhKD2-16" value="&amp;lt;&amp;lt;extends&amp;gt;&amp;gt;" style="edgeStyle=orthogonalEdgeStyle;rounded=0;orthogonalLoop=1;jettySize=auto;html=1;exitX=0.5;exitY=1;exitDx=0;exitDy=0;entryX=0;entryY=0.5;entryDx=0;entryDy=0;dashed=1;strokeColor=#330000;" edge="1" parent="1" source="_-29_EvRfan_lz7JUybT-59" target="_-29_EvRfan_lz7JUybT-53">
          <mxGeometry x="0.4284" relative="1" as="geometry">
            <mxPoint x="1" as="offset" />
          </mxGeometry>
        </mxCell>
        <mxCell id="_-29_EvRfan_lz7JUybT-59" value="initial setup" style="ellipse;whiteSpace=wrap;html=1;fontFamily=Helvetica;align=center;" parent="1" vertex="1">
          <mxGeometry x="350" y="580" width="120" height="80" as="geometry" />
        </mxCell>
        <mxCell id="pJprtQ17nexScmOIhKD2-10" value="&amp;lt;&amp;lt;extends&amp;gt;&amp;gt;" style="edgeStyle=orthogonalEdgeStyle;rounded=0;orthogonalLoop=1;jettySize=auto;html=1;exitX=0.5;exitY=0;exitDx=0;exitDy=0;entryX=0;entryY=1;entryDx=0;entryDy=0;dashed=1;strokeColor=#330000;" edge="1" parent="1" source="pJprtQ17nexScmOIhKD2-2" target="_-29_EvRfan_lz7JUybT-51">
          <mxGeometry relative="1" as="geometry" />
        </mxCell>
        <mxCell id="pJprtQ17nexScmOIhKD2-2" value="import data" style="ellipse;whiteSpace=wrap;html=1;" vertex="1" parent="1">
          <mxGeometry x="510" y="960" width="120" height="80" as="geometry" />
        </mxCell>
        <mxCell id="pJprtQ17nexScmOIhKD2-11" value="&amp;lt;&amp;lt;extends&amp;gt;&amp;gt;" style="edgeStyle=orthogonalEdgeStyle;rounded=0;orthogonalLoop=1;jettySize=auto;html=1;exitX=1;exitY=0.5;exitDx=0;exitDy=0;dashed=1;strokeColor=#330000;" edge="1" parent="1" source="pJprtQ17nexScmOIhKD2-3" target="_-29_EvRfan_lz7JUybT-51">
          <mxGeometry relative="1" as="geometry" />
        </mxCell>
        <mxCell id="pJprtQ17nexScmOIhKD2-3" value="export data" style="ellipse;whiteSpace=wrap;html=1;" vertex="1" parent="1">
          <mxGeometry x="680" y="960" width="120" height="80" as="geometry" />
        </mxCell>
      </root>
    </mxGraphModel>
  </diagram>
</mxfile>
